<?xml version="1.0" encoding="UTF-8"?>
<svg width="180px" height="180px" viewBox="0 0 180 180" version="1.1" xmlns="http://www.w3.org/2000/svg" xmlns:xlink="http://www.w3.org/1999/xlink">
    <title>next-black</title>
    <g id="Page-1" stroke="none" stroke-width="1" fill="none" fill-rule="evenodd">
        <g id="next-black" transform="translate(0.000000, 0.000000)" fill="#000000" fill-rule="nonzero">
            <g id="wordmark" transform="translate(67.308108, 74.524324)">
                <path d="M3.24324324,0.972972973 L0,0.972972973 L0,32.7567568 L3.89189189,32.7567568 L3.89189189,19.7027027 L15.4594595,19.7027027 L15.4594595,16.2162162 L3.89189189,16.2162162 L3.89189189,4.45945946 L17.027027,4.45945946 L17.027027,0.972972973 L3.24324324,0.972972973 Z" id="N"></path>
                <path d="M24.5405405,0.972972973 L20.6486486,0.972972973 L20.6486486,32.7567568 L24.5405405,32.7567568 L24.5405405,0.972972973 Z" id="E"></path>
                <path d="M31.2432432,0.972972973 L31.2432432,4.45945946 L38.3783784,4.45945946 L38.3783784,32.7567568 L42.2702703,32.7567568 L42.2702703,4.45945946 L49.4054054,4.45945946 L49.4054054,0.972972973 L31.2432432,0.972972973 Z" id="x"></path>
                <polygon id="t" points="63.5675676 11.1891892 55.7837838 0.972972973 51.8918919 0.972972973 51.8918919 32.7567568 55.7837838 32.7567568 55.7837838 8.02702703 62.9189189 17.5945946 64.2162162 17.5945946 71.3513514 8.02702703 71.3513514 32.7567568 75.2432432 32.7567568 75.2432432 0.972972973 71.3513514 0.972972973"></polygon>
                <path d="M88.7567568,4.45945946 L88.7567568,0.972972973 L77.4324324,0.972972973 L77.4324324,32.7567568 L88.7567568,32.7567568 L88.7567568,29.2702703 L81.3243243,29.2702703 L81.3243243,19.0540541 L88,19.0540541 L88,15.5675676 L81.3243243,15.5675676 L81.3243243,4.45945946 L88.7567568,4.45945946 Z" id=".</path>
                <path d="M102.486486,0.972972973 L90,0.972972973 L90,4.45945946 L94.3783784,4.45945946 L94.3783784,29.2702703 L90,29.2702703 L90,32.7567568 L102.486486,32.7567568 L102.486486,29.2702703 L98.2702703,29.2702703 L98.2702703,4.45945946 L102.486486,4.45945946 L102.486486,0.972972973 Z" id="j"></path>
                <path d="M106.540541,0.972972973 L106.540541,32.7567568 L110.432432,32.7567568 L110.432432,20.2702703 C110.432432,19.0540541 112.162162,18.0810811 113.702703,18.0810811 C115.243243,18.0810811 116.810811,19.0540541 116.810811,20.2702703 L116.810811,32.7567568 L120.702703,32.7567568 L120.702703,19.4594595 C120.702703,15.5675676 117.621622,12.9729730 114.351351,12.9729730 C111.405405,12.9729730 110.432432,13.9459459 109.945946,14.7567568 L109.945946,0.972972973 L106.540541,0.972972973 Z" id="s"></path>
            </g>
            <path d="M105.081081,56.8648649 L59.1891892,3.24324324 L0,3.24324324 L0,176.756757 L20.5405405,176.756757 L20.5405405,34.0540541 L55.7837838,77.0810811 L59.1891892,77.0810811 L94.5945946,34.0540541 L94.5945946,176.756757 L115.297297,176.756757 L115.297297,3.24324324 L105.081081,56.8648649 Z" id="logo"></path>
        </g>
    </g>
</svg>